# xmcd
#
# Track frame offsets:
#	150
#	12070
#	27507
#	39862
#	58467
#	74870
#	91410
#	104637
#	116760
#	130447
#	151517
#	167962
#	189797
#	202322
#	236452
#
# Disc length: 3275 seconds
#
# Revision: 0
# Processed by: cddbd v1.4PL0 Copyright (c) Steve Scherf et al.
# Submitted via: dBpowerAMP V4.0
#
DISCID=d60cc90f
DTITLE=Jeremy Lyons and The Deltabilly Boys - Count Your Chickens Before They Hatch
DYEAR=1999
DGENRE=Blues
TTITLE0=Count Your Chickens Before They Hatch
TTITLE1=Jerry the Junker
TTITLE2=I Love You Baby, Baby Please Don't Go
TTITLE3=Keep yoru Lamp Trimmed and Burning
TTITLE4=(There's Gonna Be A) Fight At the BBQ Tonight
TTITLE5=In The Pines (My Gal)
TTITLE6=Louis Collins
TTITLE7=Some These Days
TTITLE8=Get Rhythm
TTITLE9=Hurricane Way
TTITLE10=Café Au Lait
TTITLE11=Catfish
TTITLE12=Restaurant Rag
TTITLE13=Waitin' For My Baby
TTITLE14=Sweet By and By
EXTD=
EXTT0=
EXTT1=
EXTT2=
EXTT3=
EXTT4=
EXTT5=
EXTT6=
EXTT7=
EXTT8=
EXTT9=
EXTT10=
EXTT11=
EXTT12=
EXTT13=
EXTT14=
PLAYORDER=
